<?xml version="1.0" standalone="no"?>
<!DOCTYPE svg PUBLIC "-//W3C//DTD SVG 20010904//EN"
 "http://www.w3.org/TR/2001/REC-SVG-20010904/DTD/svg10.dtd">
<svg version="1.0" xmlns="http://www.w3.org/2000/svg"
 width="500.000000pt" height="500.000000pt" viewBox="0 0 500.000000 500.000000"
 preserveAspectRatio="xMidYMid meet">
<metadata>
Created by potrace 1.11, written by Peter Selinger 2001-2013
</metadata>
<g transform="translate(0.000000,500.000000) scale(0.100000,-0.100000)"
fill="#000000" stroke="none">
<path d="M1511 4864 c-387 -104 -634 -599 -557 -1114 54 -355 250 -634 515
-730 l61 -23 0 -232 0 -233 -60 -4 c-65 -5 -106 -27 -127 -69 -10 -19 -12
-254 -10 -1084 l2 -1060 23 -42 c26 -50 80 -106 125 -130 47 -26 277 -26 324
0 45 24 99 80 125 130 l23 42 2 1060 c2 830 0 1065 -10 1084 -21 41 -62 64
-122 69 l-55 5 2 234 3 235 55 22 c252 98 427 335 502 681 20 92 16 370 -6
473 -91 423 -363 704 -680 701 -44 0 -105 -7 -135 -15z m274 -258 c70 -35 155
-117 204 -200 47 -79 98 -234 112 -341 58 -440 -186 -859 -483 -832 -285 26
-495 457 -423 870 43 250 177 452 340 517 74 29 172 24 250 -14z m-65 -3276
l0 -960 -27 -11 c-34 -13 -103 -5 -114 13 -5 7 -9 442 -9 966 l0 952 75 0 75
0 0 -960z"/>
<path d="M2815 4866 c-68 -29 -65 1 -65 -679 0 -384 4 -635 11 -673 47 -269
186 -442 408 -508 30 -9 67 -16 83 -16 l28 0 0 -230 0 -230 -46 0 c-58 0 -105
-22 -127 -59 -16 -27 -17 -107 -17 -1078 0 -691 4 -1061 10 -1085 15 -53 68
-118 125 -153 44 -28 57 -30 155 -33 145 -5 179 6 251 77 95 96 89 10 89 1195
0 962 -1 1033 -18 1066 -21 44 -72 70 -134 70 l-48 0 0 230 0 230 29 0 c43 0
159 38 218 71 93 53 180 162 231 289 56 140 55 137 59 804 4 652 4 652 -41
695 -47 45 -148 32 -179 -23 -9 -16 -13 -183 -18 -646 -4 -538 -8 -633 -22
-679 -42 -139 -114 -228 -210 -256 -69 -20 -305 -21 -373 0 -66 19 -123 70
-163 144 -59 111 -61 135 -61 786 -1 429 -4 599 -13 625 -14 40 -68 80 -106
80 -14 -1 -40 -7 -56 -14z m665 -3530 l0 -955 -22 -15 c-26 -18 -65 -20 -102
-6 l-26 10 0 960 0 960 75 0 75 0 0 -954z"/>
<path d="M3161 4854 c-17 -14 -35 -42 -41 -62 -15 -54 -12 -677 3 -722 23 -66
104 -98 167 -65 61 32 60 24 60 433 l0 374 -34 34 c-45 45 -108 48 -155 8z"/>
<path d="M3498 4860 c-47 -37 -49 -52 -46 -438 l3 -362 33 -32 c28 -29 39 -33
83 -33 46 0 54 4 85 37 l34 38 0 360 c0 387 -1 399 -52 434 -32 23 -109 21
-140 -4z"/>
</g>
</svg>
